<svg width="42" height="42" viewBox="0 0 42 42" fill="none" xmlns="http://www.w3.org/2000/svg">
<path d="M36.603 16.737C36.6954 16.5269 36.7456 16.3006 36.7505 16.071C36.7554 15.8415 36.715 15.6133 36.6316 15.3994C36.5482 15.1855 36.4235 14.9901 36.2645 14.8245C36.1056 14.6588 35.9155 14.5261 35.7052 14.434L12.824 4.361C11.0827 3.5945 8.939 4.45025 8.19525 6.1845L4.32775 15.204C3.9639 16.0572 3.9534 17.0198 4.29855 17.8807C4.6437 18.7417 5.3163 19.4305 6.16875 19.796L16.7352 24.325L14.5652 29.75H7V24.5H3.5V38.5H7V33.25H14.5652C16.0055 33.25 17.2812 32.3855 17.8132 31.0485L19.9517 25.704L29.0605 29.6065C29.4847 29.7885 29.9636 29.7956 30.393 29.6261C30.8224 29.4567 31.1674 29.1244 31.353 28.7017L31.899 27.4592L34.8757 28.6493L38.3757 19.8993L35.6877 18.8265L36.603 16.737ZM28.8435 25.7075L7.54775 16.5813L11.4117 7.56525L32.6952 16.9348L28.8435 25.7075Z" fill="white"/>
</svg>
