<svg width="57" height="43" viewBox="0 0 57 43" fill="none" xmlns="http://www.w3.org/2000/svg">
<path d="M12.7069 1.78714C13.7971 2.87736 13.7971 4.64494 12.7069 5.73516C3.98239 14.4597 3.98239 28.6049 12.7069 37.3294C13.7971 38.4196 13.7971 40.1872 12.7069 41.2774C11.6167 42.3677 9.84911 42.3677 8.75889 41.2774C-2.14605 30.3725 -2.14605 12.6921 8.75889 1.78714C9.84911 0.696929 11.6167 0.696929 12.7069 1.78714ZM48.2492 1.78714C59.1541 12.6921 59.1541 30.3725 48.2492 41.2774C47.159 42.3677 45.3914 42.3677 44.3012 41.2774C43.211 40.1872 43.211 38.4196 44.3012 37.3294C53.0257 28.6049 53.0257 14.4597 44.3012 5.73516C43.211 4.64494 43.211 2.87736 44.3012 1.78714C45.3914 0.696929 47.159 0.696929 48.2492 1.78714ZM20.9888 9.80865C22.079 10.8989 22.079 12.6665 20.9888 13.7567C16.7149 18.0306 16.7149 24.96 20.9888 29.234C22.079 30.3242 22.079 32.0918 20.9888 33.182C19.8986 34.2722 18.131 34.2722 17.0408 33.182C10.5864 26.7276 10.5864 16.263 17.0408 9.80865C18.131 8.71844 19.8986 8.71844 20.9888 9.80865ZM40.4141 9.80865C46.8685 16.263 46.8685 26.7276 40.4141 33.182C39.3239 34.2722 37.5563 34.2722 36.4661 33.182C35.3759 32.0918 35.3759 30.3242 36.4661 29.234C40.74 24.96 40.74 18.0306 36.4661 13.7567C35.3759 12.6665 35.3759 10.8989 36.4661 9.80865C37.5563 8.71844 39.3239 8.71844 40.4141 9.80865ZM28.7275 17.54C31.0401 17.54 32.915 19.4148 32.915 21.7275C32.915 24.0401 31.0401 25.915 28.7275 25.915C26.4148 25.915 24.54 24.0401 24.54 21.7275C24.54 19.4148 26.4148 17.54 28.7275 17.54Z" fill="#FF3838"/>
</svg>
