<svg width="42" height="42" viewBox="0 0 42 42" fill="none" xmlns="http://www.w3.org/2000/svg">
<g clip-path="url(#clip0_3_26)">
<path fill-rule="evenodd" clip-rule="evenodd" d="M41.125 41.195H0.875V37.835H41.125V41.195Z" fill="white"/>
<path fill-rule="evenodd" clip-rule="evenodd" d="M7.57751 31.1325H34.4225V41.195H7.57751V31.1325ZM10.9375 34.4925V37.835H31.0625V34.4925H10.9375Z" fill="white"/>
<path fill-rule="evenodd" clip-rule="evenodd" d="M20.9999 14.3675C19.232 14.3674 17.5356 15.0659 16.2802 16.3108C15.0264 17.5541 14.314 19.2419 14.2975 21.0074V31.0625H27.7025V21.0073C27.686 19.2419 26.9735 17.5541 25.7198 16.3108C24.4644 15.0659 22.768 14.3674 21.0001 14.3675H20.9999ZM20.9999 11.0075C18.3457 11.0074 15.799 12.0561 13.9143 13.925C12.0297 15.7939 10.9597 18.3318 10.9376 20.986L10.9375 20.993V34.4225H31.0625V20.993L31.0624 20.986C31.0403 18.3318 29.9703 15.7939 28.0857 13.925C26.201 12.0561 23.6543 11.0074 21.0001 11.0075" fill="white"/>
<path fill-rule="evenodd" clip-rule="evenodd" d="M19.32 31.1325V21.07H22.68V31.1325H19.32Z" fill="white"/>
<path fill-rule="evenodd" clip-rule="evenodd" d="M24.36 22.75H17.64V19.39H24.36V22.75Z" fill="white"/>
<path fill-rule="evenodd" clip-rule="evenodd" d="M41.125 22.75H34.4225V19.39H41.125V22.75Z" fill="white"/>
<path fill-rule="evenodd" clip-rule="evenodd" d="M7.5775 22.75H0.875V19.39H7.5775V22.75Z" fill="white"/>
<path fill-rule="evenodd" clip-rule="evenodd" d="M19.32 7.66501V0.945007H22.68V7.66501H19.32Z" fill="white"/>
<path fill-rule="evenodd" clip-rule="evenodd" d="M10.3271 12.7729L5.58456 8.03045L7.96044 5.65457L12.7029 10.3971L10.3271 12.7729Z" fill="white"/>
<path fill-rule="evenodd" clip-rule="evenodd" d="M36.4154 8.03045L31.6729 12.7729L29.2971 10.3971L34.0396 5.65457L36.4154 8.03045Z" fill="white"/>
</g>
<defs>
<clipPath id="clip0_3_26">
<rect width="42" height="42" fill="white"/>
</clipPath>
</defs>
</svg>
